<!DOCTYPE svg PUBLIC "-//W3C//DTD SVG 1.1//EN" "http://www.w3.org/Graphics/SVG/1.1/DTD/svg11.dtd" [
<!ENTITY stroke_color "#666666">
<!ENTITY fill_color "#FFFFFF">
]>
<svg width="55" height="55" viewBox="0 0 55 55" xmlns="http://www.w3.org/2000/svg">
  <!-- Left calculator half -->
  <g transform="translate(-1,0) rotate(-12 20 27.5)">
    <!-- Left body with jagged edge -->
    <path d="M 6 3 L 6 47 L 24 47 L 27 44 L 25 42 L 27 40 L 25 38 L 27 36 L 25 34 L 27 32 L 25 30 L 27 28 L 25 26 L 27 24 L 25 22 L 27 20 L 25 18 L 27 16 L 25 14 L 27 12 L 25 10 L 27 8 L 24 3 Z" 
          fill="&fill_color;" stroke="&stroke_color;" stroke-width="3.5" stroke-linejoin="round"/>
    
    <!-- Left screen -->
    <rect x="9" y="7" width="14" height="6" fill="&stroke_color;" rx="1"/>
    
    <!-- Left button grid -->
    <!-- Row 1 -->
    <rect x="9" y="16" width="6" height="4" fill="&stroke_color;" rx="1"/>
    <rect x="17" y="16" width="6" height="4" fill="&fill_color;" stroke="&stroke_color;" stroke-width="1.5" rx="1"/>
    <!-- Row 2 -->
    <rect x="9" y="22" width="6" height="4" fill="&stroke_color;" rx="1"/>
    <rect x="17" y="22" width="6" height="4" fill="&stroke_color;" rx="1"/>
    <!-- Row 3 -->
    <rect x="9" y="28" width="6" height="4" fill="&fill_color;" stroke="&stroke_color;" stroke-width="1.5" rx="1"/>
    <rect x="17" y="28" width="6" height="4" fill="&fill_color;" stroke="&stroke_color;" stroke-width="1.5" rx="1"/>
    <!-- Row 4 -->
    <rect x="9" y="34" width="6" height="4" fill="&fill_color;" stroke="&stroke_color;" stroke-width="1.5" rx="1"/>
    <rect x="17" y="34" width="6" height="4" fill="&fill_color;" stroke="&stroke_color;" stroke-width="1.5" rx="1"/>
    <!-- Row 5 -->
    <rect x="9" y="40" width="6" height="4" fill="&fill_color;" stroke="&stroke_color;" stroke-width="1.5" rx="1"/>
    <rect x="17" y="40" width="6" height="4" fill="&fill_color;" stroke="&stroke_color;" stroke-width="1.5" rx="1"/>
  </g>
  
  <!-- Right calculator half -->
  <g transform="translate(1,0) rotate(12 35 27.5)">
    <!-- Right body with jagged edge -->
    <path d="M 27 8 L 29 10 L 27 12 L 29 14 L 27 16 L 29 18 L 27 20 L 29 22 L 27 24 L 29 26 L 27 28 L 29 30 L 27 32 L 29 34 L 27 36 L 29 38 L 27 40 L 29 42 L 27 44 L 30 47 L 48 47 L 48 3 L 30 3 Z" 
          fill="&fill_color;" stroke="&stroke_color;" stroke-width="3.5" stroke-linejoin="round"/>
    
    <!-- Right screen -->
    <rect x="32" y="7" width="14" height="6" fill="&stroke_color;" rx="1"/>
    
    <!-- Right button grid -->
    <!-- Row 1 -->
    <rect x="32" y="16" width="6" height="4" fill="&fill_color;" stroke="&stroke_color;" stroke-width="1.5" rx="1"/>
    <rect x="40" y="16" width="6" height="4" fill="&fill_color;" stroke="&stroke_color;" stroke-width="1.5" rx="1"/>
    <!-- Row 2 -->
    <rect x="32" y="22" width="6" height="4" fill="&fill_color;" stroke="&stroke_color;" stroke-width="1.5" rx="1"/>
    <rect x="40" y="22" width="6" height="4" fill="&stroke_color;" rx="1"/>
    <!-- Row 3 -->
    <rect x="32" y="28" width="6" height="4" fill="&fill_color;" stroke="&stroke_color;" stroke-width="1.5" rx="1"/>
    <rect x="40" y="28" width="6" height="4" fill="&fill_color;" stroke="&stroke_color;" stroke-width="1.5" rx="1"/>
    <!-- Row 4 -->
    <rect x="32" y="34" width="6" height="4" fill="&fill_color;" stroke="&stroke_color;" stroke-width="1.5" rx="1"/>
    <rect x="40" y="34" width="6" height="4" fill="&stroke_color;" rx="1"/>
    <!-- Row 5 (wide button) -->
    <rect x="32" y="40" width="14" height="4" fill="&stroke_color;" rx="1"/>
  </g>
  
  
</svg>